<?xml version="1.0" standalone="no"?>
<!DOCTYPE svg PUBLIC "-//W3C//DTD SVG 20010904//EN"
 "http://www.w3.org/TR/2001/REC-SVG-20010904/DTD/svg10.dtd">
<svg version="1.0" xmlns="http://www.w3.org/2000/svg"
 width="900.000000pt" height="954.000000pt" viewBox="0 0 900.000000 954.000000"
 preserveAspectRatio="xMidYMid meet">
<metadata>
Created by potrace 1.10, written by Peter Selinger 2001-2011
</metadata>
<defs>
  <linearGradient id="logoGradient" x1="0%" y1="0%" x2="100%" y2="100%">
    <stop offset="0%" style="stop-color:#4F46E5;stop-opacity:1" />
    <stop offset="100%" style="stop-color:#7C3AED;stop-opacity:1" />
  </linearGradient>
</defs>
<g transform="translate(0.000000,954.000000) scale(0.100000,-0.100000)"
fill="url(#logoGradient)" stroke="none">
<path d="M4570 8090 c-251 -17 -568 -72 -780 -136 -70 -21 -233 -75 -255 -84
-11 -5 -81 -34 -155 -66 -196 -82 -375 -179 -585 -318 -438 -289 -868 -760
-1124 -1229 -77 -141 -181 -359 -181 -379 0 -5 -7 -22 -14 -36 -16 -28 -63
-161 -89 -247 -8 -27 -27 -89 -42 -137 -43 -142 -73 -292 -106 -546 -18 -137
-20 -193 -16 -442 3 -157 10 -314 15 -350 6 -36 18 -114 27 -175 15 -105 28
-167 62 -300 32 -125 128 -416 152 -463 5 -9 22 -46 38 -82 103 -235 259 -503
409 -701 88 -116 128 -151 201 -174 52 -17 60 -17 147 0 107 21 126 30 354
182 476 316 915 859 1121 1386 15 39 33 34 71 -20 70 -101 188 -205 270 -238
8 -4 24 -11 34 -17 11 -6 71 -27 135 -47 99 -32 115 -41 113 -57 -2 -10 -38
-61 -80 -113 -247 -303 -384 -449 -577 -615 -44 -37 -93 -79 -110 -94 -115
-99 -397 -296 -557 -390 -156 -92 -452 -230 -585 -274 -35 -12 -63 -27 -63
-34 0 -40 324 -291 565 -436 323 -195 744 -365 1035 -419 25 -4 88 -17 141
-28 96 -20 189 -34 349 -51 137 -15 538 -12 685 5 196 24 372 55 510 92 108
29 279 81 335 103 30 12 64 24 75 27 11 3 25 9 30 13 6 4 51 25 100 46 192 82
366 179 605 338 177 118 314 231 475 392 182 183 199 202 317 359 4 6 29 37
56 70 53 66 177 250 198 295 4 8 18 32 31 52 35 57 136 261 183 373 65 150 92
226 135 370 10 33 23 78 30 100 12 38 28 106 59 260 64 308 80 619 51 957 -13
157 -19 198 -46 343 -6 33 -15 78 -19 100 -24 128 -34 174 -45 205 -7 19 -20
62 -30 95 -70 240 -220 587 -313 725 -13 19 -28 44 -33 55 -5 11 -17 32 -27
47 -9 15 -35 55 -56 89 -44 70 -121 178 -214 298 -60 77 -325 352 -420 435
-297 260 -615 463 -934 596 -67 28 -132 56 -143 62 -11 6 -33 15 -50 19 -16 4
-61 18 -100 32 -105 36 -166 53 -360 100 -33 8 -98 22 -145 30 -276 50 -576
66 -860 47z m852 -1111 c142 -41 245 -142 314 -309 28 -65 25 -243 -4 -324
-43 -117 -164 -244 -268 -283 -126 -47 -181 -52 -283 -27 -98 24 -174 69 -240
140 -75 82 -116 162 -132 257 -42 249 129 505 371 555 111 24 131 23 242 -9z
m1764 -824 c19 -47 -80 -392 -155 -545 -135 -276 -345 -512 -564 -633 -238
-133 -506 -160 -802 -80 -104 28 -215 65 -221 74 -3 5 7 66 22 136 23 113 25
142 20 248 -4 76 -14 143 -26 183 -11 35 -20 68 -20 73 0 18 24 8 74 -29 56
-41 203 -116 307 -156 260 -100 483 -82 714 58 141 85 253 200 455 470 89 119
169 216 177 216 7 0 16 -7 19 -15z m-2771 -115 c28 -5 70 -12 95 -15 46 -6
123 -24 220 -53 30 -8 110 -42 178 -74 103 -49 133 -69 190 -126 112 -110 161
-216 182 -393 25 -212 -30 -416 -204 -751 -116 -223 -150 -283 -180 -307 -9
-7 -16 -24 -16 -36 0 -19 7 -24 38 -29 133 -23 405 -95 522 -140 159 -61 188
-74 292 -129 117 -61 259 -180 310 -260 101 -155 92 -359 -24 -592 -36 -70
-107 -183 -157 -245 -20 -24 -45 -56 -56 -70 -11 -14 -95 -101 -188 -195 -236
-239 -435 -400 -652 -528 -11 -7 -39 -24 -63 -39 -41 -27 -72 -28 -72 -3 0 12
35 66 191 293 93 136 96 141 155 239 59 97 80 135 136 248 27 55 53 108 59
117 11 21 32 78 59 163 24 73 27 212 6 253 -16 30 -78 90 -115 110 -49 28
-252 74 -381 86 -554 54 -752 109 -895 251 -169 169 -181 406 -33 658 15 26
28 50 28 52 0 3 20 39 45 81 25 41 45 78 45 82 0 3 6 13 13 21 17 20 100 218
121 286 8 28 20 89 26 137 18 134 -6 222 -84 306 -69 75 -158 102 -333 102
-187 0 -311 -31 -495 -124 -191 -96 -267 -154 -483 -368 -187 -185 -258 -248
-277 -248 -42 0 65 274 182 465 168 274 331 438 598 599 103 62 136 78 232
108 36 11 84 27 108 34 23 8 55 14 70 15 15 0 54 6 87 14 70 16 441 19 520 5z"/>
</g>
</svg>
